<?xml version="1.0" encoding="utf-8"?>
<!-- Generator: Adobe Illustrator 18.0.0, SVG Export Plug-In . SVG Version: 6.00 Build 0)  -->
<!DOCTYPE svg PUBLIC "-//W3C//DTD SVG 1.1//EN" "http://www.w3.org/Graphics/SVG/1.1/DTD/svg11.dtd">
<svg version="1.1" id="Layer_1" xmlns="http://www.w3.org/2000/svg" xmlns:xlink="http://www.w3.org/1999/xlink" x="0px" y="0px"
	 viewBox="47 968.9 548.3 292" enable-background="new 47 968.9 548.3 292" xml:space="preserve">
<g id="Layer_2" display="none">
	<rect y="548.1" display="inline" fill="none" width="595.3" height="283.5"/>
	<rect y="268.9" display="inline" fill="#FF0000" width="595.3" height="841.9"/>
</g>
<g id="Layer_1_1_">
	<g>
		<path fill="#33BBDB" d="M453.4,973.2c-60.2,0-111.8,37.5-132.1,90.6c-2.3,6.8-9.5,27.4-9.5,49.4v1.6
			c0,78.2,63.4,141.6,141.6,141.6S595,1193.1,595,1114.8C595,1036.5,531.6,973.2,453.4,973.2"/>
	</g>
	<g>
		<path fill="#FFFFFF" d="M311.6,1098.9c-0.8-11.6,16.1-71.6,93.5-105.7c69.8-30.9,125.8-4,128.9,25.9
			c3.4,31.7-19.8,87.7-98.3,112.6c-0.5,2.6-1.3,5.5-2.4,8.7c-8.5,27.2-9.8,35.4-11.6,43.1c-2.6,11.1-16.1,7.7-15.6-2.6
			c0.5-6.6,5.8-28,11.4-44.4l-2.9,0.5c0,0-90.9,1.8-48.9-72.9c28.5-51,94.1-49.7,104.4-48.4c10.3,1.3,12.9,12.9,0.5,12.9
			c-12.4,0-95.4,0.8-101.7,63.7c-3.2,31.7,24.6,35.9,53.9,29.6c1.1-2.1,1.8-4,2.6-5c3.7-4.8,9-5,10.6,1.6c19.6-6.1,38-15.9,47-24
			c20.1-18.8,65.3-77.7,1.3-98.6C427,977.1,339,1040,328.9,1090.8C323.8,1117.2,312.1,1110.5,311.6,1098.9"/>
	</g>
	<g>
		<g>
			<path fill="#33BBDB" d="M53.6,1149.7c-0.9-0.9-1.4-2-1.4-3.2v-116c0-1.2,0.6-2.3,1.4-3.2s2-1.2,3.2-1.2h20.8
				c1.2,0,2.3,0.3,3.2,1.2s1.2,1.7,1.2,3.2v6.4c6.4-8.4,15.3-12.4,27.1-12.4c11.3,0,20.2,3.5,26.8,10.7c6.6,7.2,10.1,17.3,10.4,30.3
				c0,1.4,0.3,3.8,0.3,6.6c0,2.9,0,4.9-0.3,6.6c-0.6,12.7-4,22.5-10.7,30c-6.6,7.2-15.6,11-26.8,11s-19.9-3.8-25.4-11.5v38.4
				c0,1.2-0.3,2.3-1.2,3.2c-0.9,0.9-2,1.2-3.2,1.2H56.7C55.3,1150.9,54.4,1150.6,53.6,1149.7 M110.4,1090.3c2.3-3.2,3.5-7.5,4-13
				c0-1.2,0.3-2.9,0.3-5.5c0-2.6,0-4.3-0.3-5.5c-0.3-5.5-1.7-9.8-4-13c-2.3-3.2-6.1-4.6-11.3-4.6c-4.9,0-8.7,1.7-11.3,4.9
				c-2.6,3.2-4,7.2-4,12.1c0,1.4-0.3,3.8-0.3,6.6s0,4.9,0.3,6.6c0.3,4.6,1.7,8.4,4,11.3c2.6,2.9,6.4,4.6,11.3,4.6
				C104.4,1094.9,108.1,1093.4,110.4,1090.3"/>
		</g>
		<g>
			<path fill="#33BBDB" d="M201.9,1104.4v44.4c-1.5,0.4-3.8,0.8-7,1.2c-3.2,0.4-6.4,0.6-9.5,0.6s-5.8-0.2-8.1-0.7
				c-2.3-0.5-4.3-1.3-5.9-2.5c-1.6-1.2-2.8-2.9-3.6-5c-0.8-2.1-1.2-5-1.2-8.4v-106.2c1.5-0.3,3.8-0.6,7-1.1s6.3-0.7,9.2-0.7
				c3.1,0,5.8,0.2,8.1,0.7s4.3,1.3,5.9,2.5s2.8,2.9,3.6,5c0.8,2.1,1.2,5,1.2,8.4v32l41.8-48.1c9.1,0,15.7,1.7,19.6,5.1
				c4,3.4,5.9,7.5,5.9,12.2c0,3.5-0.9,6.8-2.6,9.9c-1.7,3.1-4.6,6.6-8.4,10.5l-25.1,25.1c3.3,3.8,6.9,7.6,10.6,11.7
				c3.7,4,7.3,7.9,10.9,11.8c3.6,3.8,7,7.5,10.3,11c3.3,3.5,6.1,6.5,8.5,9c0,3-0.5,5.6-1.6,7.8c-1.1,2.3-2.5,4.2-4.3,5.8
				c-1.8,1.6-3.9,2.8-6.1,3.6c-2.3,0.8-4.7,1.2-7.2,1.2c-5.5,0-10-1.4-13.5-4.1c-3.5-2.7-6.8-6-10.1-9.8L201.9,1104.4z"/>
		</g>
		<g>
			<path fill="#33BBDB" d="M66.6,1195.6c-0.7,0-1.5,0-2.4-0.1c-0.9,0-1.9-0.1-2.9-0.2c-1-0.1-2-0.3-2.9-0.5c-1-0.2-1.8-0.4-2.6-0.8
				c-2.2-0.8-3.3-2.3-3.3-4.4v-28.1c0-0.8,0.2-1.5,0.7-2c0.5-0.5,1.1-0.8,1.9-1.1c1.4-0.5,3.1-0.8,5.1-1.1c2-0.2,4.1-0.3,6.3-0.3
				c5.1,0,9.1,0.9,11.8,2.6c2.8,1.7,4.1,4.4,4.1,8c0,1.8-0.5,3.4-1.6,4.7c-1,1.3-2.4,2.3-4.2,2.9c2,0.6,3.7,1.6,5,3.1
				c1.3,1.5,2,3.3,2,5.6c0,4-1.5,6.9-4.4,8.8C76.4,1194.6,72.1,1195.6,66.6,1195.6z M62.7,1172.4h4.4c1.7,0,3-0.3,3.8-1
				c0.8-0.6,1.2-1.6,1.2-2.8c0-1.1-0.5-1.9-1.4-2.6c-0.9-0.6-2.3-1-4.1-1c-0.6,0-1.3,0-2.1,0.1c-0.8,0-1.4,0.1-1.8,0.2V1172.4z
				 M62.7,1187.1c0.6,0.2,1.3,0.3,2.2,0.3c0.9,0.1,1.7,0.1,2.5,0.1c1.6,0,2.9-0.3,4-1c1.1-0.7,1.6-1.7,1.6-3.1
				c0-1.3-0.4-2.3-1.3-2.8c-0.9-0.6-2.2-0.8-4-0.8h-4.9L62.7,1187.1L62.7,1187.1z"/>
			<path fill="#33BBDB" d="M100.9,1164.5c2.2,0,4.1,0.2,5.9,0.7c1.8,0.4,3.3,1.1,4.6,2c1.3,0.9,2.2,2,2.9,3.4c0.7,1.4,1,3,1,4.9
				v13.5c0,1-0.3,1.9-0.9,2.6c-0.6,0.7-1.3,1.2-2.1,1.7c-2.6,1.6-6.3,2.3-11,2.3c-2.1,0-4-0.2-5.7-0.6c-1.7-0.4-3.2-1-4.4-1.8
				c-1.2-0.8-2.2-1.8-2.8-3.1c-0.7-1.2-1-2.7-1-4.3c0-2.8,0.8-4.9,2.5-6.4c1.6-1.5,4.2-2.4,7.6-2.8l7.9-0.8v-0.4
				c0-1.2-0.5-2-1.5-2.5c-1-0.5-2.5-0.8-4.4-0.8c-1.5,0-3,0.2-4.4,0.5c-1.4,0.3-2.7,0.7-3.9,1.2c-0.5-0.4-1-0.9-1.3-1.7
				c-0.4-0.7-0.5-1.5-0.5-2.3c0-1,0.2-1.9,0.8-2.5c0.5-0.6,1.3-1.2,2.3-1.6c1.2-0.4,2.5-0.8,4.1-1
				C98,1164.6,99.5,1164.5,100.9,1164.5z M101.4,1188.1c0.7,0,1.4-0.1,2.3-0.2c0.8-0.1,1.4-0.3,1.8-0.6v-4.8l-4.3,0.4
				c-1.1,0.1-2,0.3-2.8,0.7c-0.7,0.4-1.1,1-1.1,1.8c0,0.8,0.3,1.5,0.9,2C98.9,1187.9,99.9,1188.1,101.4,1188.1z"/>
			<path fill="#33BBDB" d="M140.1,1176.1c0-1.2-0.4-2.2-1.1-2.7c-0.7-0.6-1.7-0.9-2.9-0.9c-0.8,0-1.6,0.1-2.4,0.3s-1.5,0.5-2,0.9
				v20.9c-0.4,0.1-1,0.2-1.9,0.4c-0.9,0.1-1.8,0.2-2.7,0.2c-0.9,0-1.7-0.1-2.4-0.2c-0.7-0.1-1.3-0.4-1.8-0.7
				c-0.5-0.4-0.9-0.9-1.1-1.5c-0.3-0.6-0.4-1.4-0.4-2.4v-18c0-1.1,0.2-2,0.7-2.6c0.5-0.7,1.1-1.3,1.9-1.9c1.4-1,3.1-1.7,5.1-2.3
				c2.1-0.6,4.4-0.9,6.9-0.9c4.5,0,8,1,10.5,3c2.4,2,3.7,4.7,3.7,8.3v18.8c-0.4,0.1-1,0.2-1.9,0.4c-0.9,0.1-1.8,0.2-2.7,0.2
				s-1.7-0.1-2.4-0.2c-0.7-0.1-1.3-0.4-1.8-0.7c-0.5-0.4-0.9-0.9-1.1-1.5c-0.3-0.6-0.4-1.4-0.4-2.4v-14.5H140.1z"/>
			<path fill="#33BBDB" d="M172.1,1195.6c-2.4,0-4.6-0.3-6.6-1c-2-0.7-3.8-1.7-5.3-3c-1.5-1.3-2.7-3-3.5-5c-0.9-2-1.3-4.3-1.3-7
				c0-2.6,0.4-4.9,1.3-6.8c0.9-1.9,2-3.5,3.4-4.7c1.4-1.2,3-2.1,4.8-2.7s3.6-0.9,5.5-0.9c2.1,0,4.1,0.3,5.8,1
				c1.7,0.6,3.2,1.5,4.5,2.6s2.2,2.5,2.9,4c0.7,1.6,1.1,3.3,1.1,5.1c0,1.4-0.4,2.4-1.1,3.1c-0.8,0.7-1.8,1.2-3.2,1.4l-14.8,2.2
				c0.4,1.3,1.3,2.3,2.7,3c1.4,0.7,2.9,1,4.7,1c1.6,0,3.2-0.2,4.7-0.6s2.7-0.9,3.6-1.5c0.6,0.4,1.2,1,1.6,1.7
				c0.4,0.7,0.7,1.5,0.7,2.3c0,1.8-0.8,3.1-2.5,4c-1.3,0.7-2.7,1.1-4.3,1.4C175,1195.4,173.5,1195.6,172.1,1195.6z M170.4,1171.9
				c-1,0-1.8,0.2-2.5,0.5c-0.7,0.3-1.3,0.7-1.7,1.2c-0.4,0.5-0.8,1.1-1,1.7c-0.2,0.6-0.4,1.3-0.4,1.9l10.3-1.7
				c-0.1-0.8-0.6-1.6-1.3-2.4C173,1172.4,171.9,1171.9,170.4,1171.9z"/>
			<path fill="#33BBDB" d="M199.8,1194.5c-0.4,0.1-1,0.2-1.9,0.4c-0.9,0.1-1.8,0.2-2.7,0.2s-1.7-0.1-2.4-0.2
				c-0.7-0.1-1.3-0.4-1.8-0.7c-0.5-0.4-0.9-0.9-1.1-1.5c-0.3-0.6-0.4-1.4-0.4-2.4v-18c0-0.9,0.2-1.7,0.5-2.4s0.8-1.3,1.5-1.8
				c0.6-0.5,1.4-1,2.4-1.4c0.9-0.4,2-0.8,3-1.1c1.1-0.3,2.2-0.6,3.4-0.8c1.2-0.2,2.3-0.3,3.5-0.3c1.9,0,3.4,0.4,4.6,1.1
				c1.1,0.7,1.7,2,1.7,3.6c0,0.6-0.1,1.1-0.2,1.7c-0.2,0.5-0.4,1-0.6,1.5c-0.8,0-1.7,0-2.6,0.1c-0.9,0.1-1.7,0.2-2.6,0.4
				c-0.8,0.2-1.6,0.3-2.4,0.5c-0.7,0.2-1.4,0.4-1.9,0.6V1194.5z"/>
			<path fill="#33BBDB" d="M212.3,1198.7c0.9-0.6,1.5-1.3,1.9-2.3c0.4-1,0.6-2.1,0.6-3.3v-27.3c0.4-0.1,1.1-0.2,2-0.3
				c0.9-0.1,1.7-0.2,2.6-0.2c0.9,0,1.7,0.1,2.4,0.2c0.7,0.1,1.3,0.4,1.8,0.7c0.5,0.4,0.9,0.9,1.1,1.5c0.3,0.6,0.4,1.4,0.4,2.4v24
				c0,1.7-0.2,3.2-0.6,4.6c-0.4,1.4-1,2.5-1.7,3.5c-0.7,1-1.6,1.7-2.7,2.3c-1.1,0.5-2.3,0.8-3.6,0.8c-1.8,0-3.1-0.5-4.1-1.6
				s-1.5-2.4-1.6-4L212.3,1198.7z M214.4,1157.3c0-1.5,0.5-2.8,1.5-3.8c1-1,2.4-1.6,4.1-1.6c1.7,0,3,0.5,4.1,1.6
				c1,1,1.5,2.3,1.5,3.8s-0.5,2.8-1.5,3.8c-1,1-2.4,1.6-4.1,1.6c-1.7,0-3-0.5-4.1-1.6C214.9,1160.1,214.4,1158.8,214.4,1157.3z"/>
			<path fill="#33BBDB" d="M247,1195.6c-2.4,0-4.6-0.3-6.6-1c-2-0.7-3.8-1.7-5.3-3c-1.5-1.3-2.7-3-3.5-5c-0.9-2-1.3-4.3-1.3-7
				c0-2.6,0.4-4.9,1.3-6.8c0.9-1.9,2-3.5,3.4-4.7s3-2.1,4.8-2.7s3.6-0.9,5.5-0.9c2.1,0,4.1,0.3,5.8,1c1.7,0.6,3.2,1.5,4.5,2.6
				s2.2,2.5,2.9,4c0.7,1.6,1.1,3.3,1.1,5.1c0,1.4-0.4,2.4-1.1,3.1c-0.8,0.7-1.8,1.2-3.2,1.4l-14.8,2.2c0.4,1.3,1.3,2.3,2.7,3
				c1.4,0.7,2.9,1,4.7,1c1.6,0,3.2-0.2,4.7-0.6c1.5-0.4,2.7-0.9,3.6-1.5c0.6,0.4,1.2,1,1.6,1.7c0.4,0.7,0.7,1.5,0.7,2.3
				c0,1.8-0.8,3.1-2.5,4c-1.3,0.7-2.7,1.1-4.3,1.4C249.9,1195.4,248.4,1195.6,247,1195.6z M245.3,1171.9c-1,0-1.8,0.2-2.5,0.5
				c-0.7,0.3-1.3,0.7-1.7,1.2c-0.4,0.5-0.8,1.1-1,1.7c-0.2,0.6-0.4,1.3-0.4,1.9l10.3-1.7c-0.1-0.8-0.6-1.6-1.3-2.4
				C247.9,1172.4,246.8,1171.9,245.3,1171.9z"/>
			<path fill="#33BBDB" d="M280,1195.6c-2.4,0-4.6-0.3-6.6-1c-2-0.7-3.8-1.7-5.3-3c-1.5-1.3-2.7-3-3.5-5c-0.9-2-1.3-4.3-1.3-7
				c0-2.6,0.4-4.9,1.3-6.8s2-3.5,3.4-4.7c1.4-1.2,3-2.1,4.8-2.7s3.6-0.9,5.5-0.9c2.1,0,4.1,0.3,5.8,1c1.7,0.6,3.2,1.5,4.5,2.6
				c1.3,1.1,2.2,2.5,2.9,4c0.7,1.6,1.1,3.3,1.1,5.1c0,1.4-0.4,2.4-1.1,3.1c-0.8,0.7-1.8,1.2-3.2,1.4l-14.8,2.2
				c0.4,1.3,1.3,2.3,2.7,3c1.4,0.7,2.9,1,4.7,1c1.6,0,3.2-0.2,4.7-0.6c1.5-0.4,2.7-0.9,3.6-1.5c0.6,0.4,1.2,1,1.6,1.7
				c0.4,0.7,0.7,1.5,0.7,2.3c0,1.8-0.8,3.1-2.5,4c-1.3,0.7-2.7,1.1-4.3,1.4C282.9,1195.4,281.4,1195.6,280,1195.6z M278.3,1171.9
				c-1,0-1.8,0.2-2.5,0.5c-0.7,0.3-1.3,0.7-1.7,1.2c-0.4,0.5-0.8,1.1-1,1.7s-0.4,1.3-0.4,1.9l10.3-1.7c-0.1-0.8-0.6-1.6-1.3-2.4
				C280.9,1172.4,279.8,1171.9,278.3,1171.9z"/>
		</g>
	</g>
	<g>
		<path fill="#FFFFFF" d="M469,1101.1c-1.6,8.3-3.4,16.4-5.2,24.2c-1.9,7.8-3.9,15.4-6,22.6c1-0.4,1.9-0.7,2.8-0.9
			c0.9-0.2,1.8-0.3,2.6-0.3c0.1,0,0.4,0,0.7,0.1c0.3,0,0.6,0.1,0.7,0.1c6.8-7.8,12.9-15.1,18.2-21.8c5.3-6.7,9.1-12,11.5-15.9
			c0.7-1.3,1.7-2.9,2.8-5c2.9-5.5,7.2-8.2,12.7-8.2c3.5,0,6.3,0.4,8.4,1.1c2.1,0.8,3.1,1.8,3.1,3c0,3.2-4.2,9.4-12.7,18.7
			c-8.5,9.3-19.3,19.2-32.4,29.7c4.6,1.2,8,2.9,10.2,5.2c2.2,2.3,3.3,5.2,3.3,8.8c0,3-1.2,8.2-3.7,15.6c-2.5,7.4-3.7,12.5-3.7,15.3
			c0,2.6,0.8,4.5,2.5,5.7s4.5,1.8,8.6,2l-2.9,9.8h-0.9c-9,0-15.6-1.2-19.8-3.7s-6.4-6.3-6.4-11.5c0-3.8,1.3-9.5,4-17.2
			c2.7-7.7,4-12.8,4-15.3c0-1.1-0.5-2.1-1.4-3c-1-0.9-2.3-1.5-4.1-1.9c-1.7,2.8-3.9,5-6.4,6.7c-2.6,1.7-5.4,2.7-8.5,3
			c-5.7,14.9-12.2,25.9-19.6,32.8c-7.4,6.9-16.2,10.4-26.4,10.4c-6.7,0-12.2-1.7-16.5-5.1c-4.3-3.4-6.4-7.7-6.4-13
			c0-2.4,0.6-4.5,1.9-6c1.3-1.6,2.9-2.4,4.8-2.4h0.4c0.9,3.7,2.7,6.5,5.4,8.4c2.7,1.9,6.3,2.9,10.7,2.9c8.9,0,16.9-6.6,23.8-19.8
			s13.7-34.7,20.3-64.7c-2.6-0.5-5-0.9-7.1-1.2c-2.1-0.2-4-0.4-5.7-0.4c-5.7,0-9.7,0.8-11.9,2.3c-2.2,1.6-3.6,4.4-4,8.6
			c-0.2,0-0.5,0.1-0.8,0.1s-0.6,0-1.1,0c-2.3,0-4.2-0.7-5.7-2.1c-1.5-1.4-2.2-3.3-2.2-5.6c0-5.4,2.6-9.7,7.7-12.8
			c5.2-3.1,12.3-4.7,21.3-4.7c4.6,0,9.3,0.4,14.1,1.2C458.7,1098.1,463.8,1099.3,469,1101.1z"/>
	</g>
	<g>
		<path fill="#FFFFFF" d="M488.1,1147.7c1.3-3.7,3.1-7.2,5.3-10.5c2.3-3.3,4.8-6.3,7.7-9.1c2.9-2.8,6-5.3,9.4-7.5
			c3.3-2.3,6.7-4.2,10.1-5.9c3.5-1.6,7.3-2.9,11.4-4c4.1-1.1,8.2-1.7,12.2-1.7c4.1,0,8,0.7,11.8,2.1c3.8,1.4,7.1,3.7,10,6.9
			c2.2,2.5,3.6,5.1,4.4,7.7c0.7,2.6,0.8,5.2,0.4,7.9c-0.4,2.7-1.2,5.2-2.5,7.7c-1.3,2.5-2.8,4.9-4.6,7c3.4,1.7,6,3.9,7.8,6.5
			c1.8,2.6,3,5.4,3.5,8.5c0.5,3.1,0.5,6.2-0.1,9.3c-0.6,3.1-1.6,6.1-2.9,8.8c-2.1,4.1-4.7,7.9-7.9,11.5c-3.1,3.6-6.7,6.8-10.6,9.6
			s-8,5.3-12.4,7.2c-4.3,2-8.7,3.4-13.1,4.3c-3.4,0.7-6.9,1-10.6,0.8c-3.7-0.1-7.1-0.8-10.3-2.1c-3.2-1.2-6.1-3.1-8.6-5.5
			s-4.3-5.4-5.4-9.2c-1.6-5.2-1.7-10.4-0.4-15.8c1.4-5.3,3.5-10.4,6.5-15.4c2.9-5,6.3-9.7,10.2-14.2c3.8-4.4,7.5-8.3,10.9-11.6
			c1.3-1.3,2.7-2,4.3-2.1c1.5-0.1,2.9,0.3,4.1,1.1s2,1.9,2.5,3.4c0.5,1.5,0.4,3.3-0.3,5.3c4-1.5,7.6-3.6,10.9-6.2
			c3.2-2.6,5.7-5,7.4-7.1c1-1.3,1.4-2.4,1.4-3.3c-0.1-0.9-0.7-1.6-1.7-2.1c-1-0.5-2.4-0.8-4.1-1c-1.7-0.2-3.6-0.1-5.7,0.1
			c-3,0.3-6,0.9-8.8,1.9c-2.9,1-5.7,2.1-8.3,3.4c-4.3,2.1-8.5,4.8-12.6,8c-4.1,3.2-7.3,6.9-9.6,11.1c-1.2,2.1-2.7,3.4-4.4,4
			c-1.8,0.6-3.3,0.6-4.7,0c-1.4-0.6-2.4-1.7-3.1-3.4C487.2,1152.3,487.3,1150.2,488.1,1147.7z M517.6,1168.6c-0.8,1.5-1.8,3.5-3,5.9
			c-1.2,2.4-2.2,4.8-3,7.3c-0.8,2.5-1.2,4.8-1.2,7c0,2.2,0.8,4,2.3,5.2c2.2,1.7,4.8,2.4,7.8,2.2c3-0.2,6.2-1.1,9.5-2.7
			c3.3-1.5,6.6-3.6,9.8-6.1c3.2-2.5,6.2-5.1,8.8-7.9c2.6-2.7,4.8-5.5,6.6-8.3c1.7-2.7,2.7-5.2,2.9-7.3c0.2-2.2-0.5-3.6-2.2-4.2
			c-1.6-0.6-3.2-0.8-4.7-0.4c-2.4,1.5-5,3-7.7,4.4c-2.8,1.5-5.6,2.7-8.5,3.7c-2.9,1-5.8,1.7-8.8,2
			C523.3,1169.6,520.4,1169.4,517.6,1168.6z"/>
	</g>
	<circle fill="#33BBDB" cx="148.9" cy="1143.2" r="7.7"/>
	<circle fill="#33BBDB" cx="285.6" cy="1143.2" r="7.7"/>
</g>
</svg>
